PathFileType	4	(X/Y/Z)	D:\Long Term Storage\D'Arcy Smith\Coord15.trc
DataRate	CameraRate	NumFrames	NumMarkers	Units	OrigDataRate	OrigDataStartFrame	OrigNumFrames
120.00	120.00	      48	4	mm	120.00	2421	      4841
Frame#	Time	M1			M2			M3			M4			
		X1	Y1	Z1	X2	Y2	Z2	X3	Y3	Z3	X4	Y4	Z4	

2421	20.167	1079.35583	404.25558	130.42224	1673.26428	494.40375	99.76861							
2422	20.175	1079.52942	407.15891	126.92225	1674.34863	494.14655	99.92235							
2423	20.183	1080.05591	409.56866	124.39340	1675.45532	493.13632	100.62044							
2424	20.192	1080.31079	411.10748	122.59949	1676.42212	490.85941	102.00535							
2425	20.200	1080.96912	411.70068	122.47780	1677.32861	488.20380	103.57409							
2426	20.208	1080.82227	411.94330	121.57233	1678.57629	484.54584	105.93616							
2427	20.217	1079.99805	412.31439	120.40638	1679.61853	479.96936	108.66729							
2428	20.225	1080.21460	410.83224	122.02702	1680.53906	474.78986	111.98146							
2429	20.233	1078.98877	408.79919	123.04320	1681.69104	468.45255	115.94711							
2430	20.242	1078.73914	406.23178	125.57122	1682.57910	462.28439	120.49862							
2431	20.250	1077.41589	402.95880	127.58229	1683.28479	455.42355	124.86215							
2432	20.258	1076.36670	399.03571	130.88809	1684.02014	448.21948	129.97496							
2433	20.267	1075.27612	394.61124	134.71594	1684.59302	440.67154	135.69620							
2434	20.275	1074.56836	389.55011	139.63080	1685.16113	432.77597	141.68996							
2435	20.283	1073.19788	384.11063	144.76344	1685.66858	424.70773	148.45509							
2436	20.292	1072.14795	378.12830	150.78435	1686.12219	416.29639	155.80609							
2437	20.300	1070.00195	371.65219	156.62657	1686.61719	407.91528	163.48035							
2438	20.308	1068.96033	364.76752	164.26382	1686.80920	399.35468	171.87164							
2439	20.317	1067.07813	357.59882	171.61861	1687.10315	390.78528	180.70882							
2440	20.325	1065.05481	349.76550	180.71790	1687.21606	382.19800	190.18121							
2441	20.333	1063.23450	341.90161	189.72778	1687.35999	373.71237	200.25470							
2442	20.342	1062.11841	333.97507	200.20950	1687.22058	365.29282	210.84195							
2443	20.350	1060.54443	325.97324	210.84657	1687.39343	357.03302	221.94601							
2444	20.358	1058.23486	318.09082	222.00545	1687.39795	348.93338	233.55508							
2445	20.367	1057.15063	310.47485	234.04239	1687.25354	341.22247	245.81924							
2446	20.375	1055.63123	302.89020	246.98486	1687.22363	333.64941	258.50745							
2447	20.383	1054.52295	295.70248	261.07910	1686.94995	326.37769	271.66678							
2448	20.392	1052.03833	288.01767	275.95703	1686.68945	319.76895	285.13409							
2449	20.400	1051.17139	282.20908	290.64117	1686.53064	313.33276	299.06799							
2450	20.408	1050.24976	276.55307	305.40213	1686.28711	307.37457	313.34503							
2451	20.417	1049.56836	271.28616	321.42017	1686.00500	301.76749	327.80466							
2452	20.425	1047.88904	266.90820	338.01944	1685.54492	296.67325	342.48587							
2453	20.433	1047.16016	262.59003	357.15417	1685.10620	292.16733	357.32315							
2454	20.442	1046.61279	259.53635	373.23947	1684.67859	288.32693	372.27002							
2455	20.450	1045.73059	257.94055	391.19662	1684.15112	285.12918	387.05939							
2456	20.458	1045.06531	256.33405	408.85458	1683.46826	282.50015	401.78043							
2457	20.467	1045.11951	256.38702	424.54733	1682.69299	280.41342	416.55301							
2458	20.475	1045.24634	257.22437	440.21808	1681.67810	279.55118	430.56119							
2459	20.483	1044.95874	258.76129	456.78601	1680.87671	278.76041	444.25620							
2460	20.492	1045.14661	260.84702	470.40897	1679.80835	278.52496	457.66882							
2461	20.500	1045.93970	263.74783	485.61505	1678.62683	278.71667	470.34659							
2462	20.508	1046.15759	266.73816	499.21338	1677.27222	279.64636	482.38486							
2463	20.517	1046.25745	270.68640	510.64496	1675.95654	280.71259	493.63779							
2464	20.525	1047.21924	274.41943	523.10315	1674.44678	282.24902	504.18442							
2465	20.533	1047.10046	278.18433	533.00415	1672.97668	283.42072	513.94049							
2466	20.542	1048.12195	282.24704	544.40204	1671.35205	284.91129	522.76050							
2467	20.550	1048.44250	285.97943	554.03406	1669.78625	286.56665	530.70215							
2468	20.558	1049.37939	289.45374	561.69049	1668.01636	288.16183	537.69885							
